<?xml version="1.0" standalone="no"?>
<!DOCTYPE svg PUBLIC "-//W3C//DTD SVG 1.1//EN" "http://www.w3.org/Graphics/SVG/1.1/DTD/svg11.dtd" >
<svg xmlns="http://www.w3.org/2000/svg">
<metadata></metadata>
<defs>
<font id="gothamitalic" horiz-adv-x="1024" >
<font-face units-per-em="2048" ascent="1638" descent="-410" />
<missing-glyph horiz-adv-x="614" />
<glyph horiz-adv-x="0" />
<glyph unicode="&#xd;" horiz-adv-x="512" />
<glyph unicode=" "  horiz-adv-x="614" />
<glyph unicode="&#x09;" horiz-adv-x="614" />
<glyph unicode="&#xa0;" horiz-adv-x="614" />
<glyph unicode="!" horiz-adv-x="514" d="M49 0l47 174h135l-47 -174h-135zM188 375l215 915l39 144h119l-39 -144l-276 -915h-58z" />
<glyph unicode="&#x22;" horiz-adv-x="839" d="M207 913l190 521h129v-11l-260 -510h-59zM575 913l191 521h129v-11l-260 -510h-60z" />
<glyph unicode="#" horiz-adv-x="1388" d="M72 383l24 96h256l170 484h-272l24 96h281l131 375h98l-131 -375h424l131 375h99l-131 -375h247l-24 -96h-256l-170 -484h272l-24 -96h-281l-133 -383h-98l133 383h-424l-133 -383h-99l133 383h-247zM453 479h421l170 484h-423z" />
<glyph unicode="$" horiz-adv-x="1265" d="M-2 250l78 67q72 -86 173 -140t232 -73l158 590q-98 37 -168 74t-114 79t-64.5 91t-20.5 113q0 82 36 152.5t100.5 121.5t151.5 80t188 29q23 0 45 -1t45 -3l32 122h101l-37 -137q113 -23 200 -70t152 -112l-74 -74q-59 59 -137 101.5t-176 62.5l-149 -557 q186 -68 270 -151t84 -209q0 -88 -38 -162t-106.5 -128.5t-165 -85t-212.5 -30.5h-39l-54 -201h-100l57 211q-141 23 -255.5 86.5t-192.5 153.5zM381 1061q0 -92 66.5 -149.5t218.5 -114.5l145 536q-90 12 -168 -4t-136 -54t-92 -93.5t-34 -120.5zM569 96q92 -2 170 17.5 t135.5 59.5t89 96.5t31.5 125.5q0 84 -59 147.5t-213 123.5z" />
<glyph unicode="%" horiz-adv-x="1681" d="M133 0l1397 1434h123l-1397 -1434h-123zM190 1001q0 86 31 167t83 143.5t124 100.5t154 38q61 0 113.5 -22.5t89 -62.5t57 -93t20.5 -115q0 -86 -30.5 -167t-83 -143.5t-124 -100t-153.5 -37.5q-61 0 -113.5 22.5t-89.5 62.5t-57.5 93t-20.5 114zM291 1012 q0 -98 48 -156.5t140 -58.5q59 0 110.5 30.5t90.5 80.5t60.5 112.5t21.5 126.5q0 98 -48 156.5t-141 58.5q-59 0 -110 -31t-90 -81t-60.5 -112.5t-21.5 -125.5zM924 279q0 86 30.5 166.5t83 143t124 100.5t153.5 38q61 0 113.5 -22.5t89 -62.5t57 -93t20.5 -115 q0 -86 -30.5 -167t-82.5 -143.5t-124 -100t-154 -37.5q-61 0 -113.5 22.5t-89 62.5t-57 93t-20.5 115zM1024 289q0 -98 48 -156.5t140 -58.5q59 0 110.5 30.5t90.5 81t60.5 112.5t21.5 126q0 98 -48 156.5t-140 58.5q-59 0 -110.5 -30.5t-90.5 -81t-60.5 -113t-21.5 -125.5z " />
<glyph unicode="&#x26;" horiz-adv-x="1413" d="M63 338q0 174 126 299t376 188q-43 70 -69.5 136.5t-26.5 136.5q0 78 30.5 143.5t82 113.5t120 75.5t144.5 27.5q154 0 245 -81t91 -216q0 -57 -22.5 -112.5t-76 -105.5t-142.5 -94t-222 -81l291 -412q61 70 120.5 156t116.5 186l80 -47q-66 -111 -130 -201t-130 -163 l184 -262l-80 -54l-174 248q-119 -119 -239.5 -179t-284.5 -60q-86 0 -160.5 23.5t-130 69.5t-87.5 112.5t-32 152.5zM172 350q0 -129 85 -202.5t228 -73.5q129 0 239 54t218 161l-326 461q-231 -55 -337.5 -164t-106.5 -236zM573 1100q0 -66 23 -124t72 -134 q119 31 197.5 67.5t125.5 77.5t66.5 84t19.5 86q0 94 -63.5 152.5t-171.5 58.5q-53 0 -102.5 -20.5t-86.5 -57.5t-58.5 -86t-21.5 -104z" />
<glyph unicode="'" horiz-adv-x="471" d="M207 913l190 521h129v-11l-260 -510h-59z" />
<glyph unicode="(" horiz-adv-x="880" d="M203 446q0 150 48 297.5t147.5 280.5t253 247.5t362.5 201.5l35 -76q-201 -86 -342.5 -195.5t-229.5 -233.5t-128 -256t-40 -263q0 -115 24.5 -211.5t66.5 -177t97.5 -151.5t118.5 -136l-57 -60q-70 63 -134.5 139t-113.5 167.5t-78.5 198t-29.5 228.5z" />
<glyph unicode=")" horiz-adv-x="880" d="M-131 -209q201 86 342 195.5t229 233.5t128 256t40 263q0 115 -24.5 211.5t-66.5 177t-97 151.5t-119 136l57 60q72 -63 136.5 -139t113.5 -167.5t78 -198t29 -229.5q0 -150 -48.5 -297t-147.5 -280t-252.5 -248t-362.5 -201z" />
<glyph unicode="*" horiz-adv-x="880" d="M283 1098l264 49l-205 172l64 61l172 -198l49 256l84 -21l-86 -248l247 86l25 -84l-264 -49l205 -172l-64 -61l-172 198l-49 -256l-84 21l86 248l-248 -86z" />
<glyph unicode="+" horiz-adv-x="1308" d="M199 672l26 98h445l116 440h103l-117 -440h445l-27 -98h-445l-118 -441h-103l119 441h-444z" />
<glyph unicode="," horiz-adv-x="473" d="M-80 -168q76 27 115 68t49 100h-55l47 174h135l-41 -151q-31 -109 -82 -160t-154 -80z" />
<glyph unicode="-" horiz-adv-x="837" d="M152 551l30 115h549l-31 -115h-548z" />
<glyph unicode="." horiz-adv-x="473" d="M29 0l47 174h135l-47 -174h-135z" />
<glyph unicode="/" d="M-248 -262l1467 1896h110l-1466 -1896h-111z" />
<glyph unicode="0" horiz-adv-x="1452" d="M168 512q0 176 55.5 345t153.5 303t233 216t295 82q119 0 209 -41t150.5 -112.5t91 -170t30.5 -212.5q0 -174 -55 -344t-153.5 -304.5t-233.5 -216.5t-295 -82q-119 0 -209 41t-150.5 113t-91 170t-30.5 213zM279 512q0 -92 23.5 -172t70.5 -139.5t117.5 -94t164.5 -34.5 q127 0 240 73.5t197 193.5t134 272.5t50 310.5q0 92 -23.5 172t-70.5 139t-118 94t-165 35q-125 0 -238.5 -74t-197.5 -193.5t-134 -272t-50 -310.5z" />
<glyph unicode="1" horiz-adv-x="684" d="M190 0l355 1321l-301 -94l-4 96l360 121h84l-387 -1444h-107z" />
<glyph unicode="2" horiz-adv-x="1204" d="M-39 0l19 80l856 665q125 98 188 181.5t63 183.5q0 106 -79.5 177t-227.5 71q-129 0 -230 -61.5t-179 -143.5l-76 66q94 96 214 165.5t275 69.5q92 0 168 -24.5t130.5 -69.5t85 -108.5t30.5 -139.5q0 -127 -79 -227.5t-218 -208.5l-741 -574h827l-26 -102h-1000z" />
<glyph unicode="3" horiz-adv-x="1241" d="M20 256l89 49q57 -111 156.5 -172t252.5 -61q94 0 175 26.5t139.5 74.5t92 113.5t33.5 145.5q0 139 -109.5 206t-291.5 67h-59l-23 53l639 575h-768l29 101h921l-20 -76l-629 -567q86 -4 163 -28t135.5 -68t92 -107.5t33.5 -147.5q0 -102 -45 -187t-122 -146.5 t-178 -96.5t-214 -35q-184 0 -308 76t-184 205z" />
<glyph unicode="4" horiz-adv-x="1320" d="M57 430l1092 1014h98l-268 -1002h233l-24 -92h-234l-94 -350h-104l94 350h-776zM203 442h671l224 832z" />
<glyph unicode="5" horiz-adv-x="1230" d="M33 231l88 56q68 -100 164 -159.5t237 -59.5q104 0 190.5 33.5t147 89t93 128t32.5 150.5q0 74 -26.5 131t-72.5 96t-108.5 59.5t-136.5 20.5t-159 -21.5t-171 -68.5l-67 53l227 695h774l-28 -103h-680l-177 -526q23 12 58 24.5t73.5 21.5t78.5 15t71 6q104 0 188 -27.5 t143.5 -79.5t91.5 -126t32 -166q0 -100 -42 -190t-118 -159t-182.5 -109t-237.5 -40q-92 0 -166 20.5t-133 55.5t-104 82t-80 98z" />
<glyph unicode="6" horiz-adv-x="1310" d="M170 502q0 119 21.5 228.5t60.5 204.5t91 176t114 142q205 205 458 205q143 0 245 -52t173 -138l-78 -68q-63 72 -146 117t-200 45q-203 0 -370 -168q-49 -49 -92.5 -111.5t-76 -133t-54 -147.5t-27.5 -153q33 49 77 92t100 77t123.5 53.5t145.5 19.5q109 0 195 -35 t144.5 -92t89 -133t30.5 -158q0 -100 -41 -190t-113.5 -159t-172 -109t-218.5 -40q-104 0 -192 36t-148 95q-66 66 -102.5 161t-36.5 235zM291 412q0 -78 24.5 -137.5t69.5 -104.5q53 -53 122.5 -76.5t147.5 -23.5q94 0 173 32.5t135.5 88t88 129t31.5 153.5 q0 57 -21.5 113.5t-64.5 102.5t-109.5 75t-158.5 29q-98 0 -179 -33t-138.5 -86t-89 -122t-31.5 -140z" />
<glyph unicode="7" horiz-adv-x="1183" d="M164 0l964 1331h-825l29 103h950l-22 -78l-973 -1356h-123z" />
<glyph unicode="8" horiz-adv-x="1312" d="M82 354q0 86 34 156t93 120t139 82.5t172 47.5q-90 33 -154.5 110.5t-64.5 194.5q0 84 40 154.5t108.5 123t162 82t199.5 29.5q104 0 191.5 -26.5t149.5 -75.5t98 -117t36 -148q0 -76 -29.5 -138t-80 -109t-118 -79t-143.5 -46q47 -16 92.5 -46t81 -71t57 -93t21.5 -114 q0 -90 -43 -165.5t-118.5 -130t-178 -85t-223.5 -30.5q-119 0 -215 29.5t-164.5 80.5t-105.5 120t-37 144zM193 367q0 -63 29.5 -116.5t83.5 -92.5t132 -60.5t172 -21.5q102 0 184.5 23.5t140.5 66.5t90 101.5t32 127.5q0 59 -29 112.5t-82 93.5t-130 64.5t-173 24.5 q-104 0 -188 -26.5t-142.5 -70.5t-89 -102.5t-30.5 -123.5zM412 1057q0 -59 25.5 -110.5t72.5 -88.5t112.5 -58.5t145.5 -21.5q102 0 178 26.5t127 70t77 97.5t26 109q0 61 -27 111.5t-75 87.5t-115.5 57.5t-147.5 20.5q-90 0 -164 -23.5t-126 -63.5t-80.5 -95.5 t-28.5 -118.5z" />
<glyph unicode="9" horiz-adv-x="1310" d="M68 176l77 68q72 -80 157 -127t202 -47q201 0 368 168q98 98 168 241.5t82 296.5q-31 -45 -72.5 -90t-97 -81t-125 -58.5t-155.5 -22.5q-109 0 -195 35t-144.5 94.5t-88 136t-29.5 160.5q0 102 42 193.5t114.5 161t173 110.5t219.5 41q104 0 191 -36t147 -95 q66 -66 102.5 -161t36.5 -234q0 -119 -21.5 -228.5t-60.5 -205t-91 -176t-114 -142.5q-102 -102 -214.5 -153.5t-241.5 -51.5q-137 0 -246 55.5t-184 147.5zM326 950q0 -59 20.5 -117.5t64.5 -105.5t112.5 -75.5t162.5 -28.5q96 0 175 33.5t137.5 90t90 129t31.5 148.5 q0 141 -94 236q-53 53 -122.5 77.5t-147.5 24.5q-94 0 -173 -34t-135.5 -90t-89 -131t-32.5 -157z" />
<glyph unicode=":" horiz-adv-x="493" d="M39 0l47 174h135l-47 -174h-135zM272 870l47 174h136l-47 -174h-136z" />
<glyph unicode=";" horiz-adv-x="493" d="M-70 -168q76 27 115 68t49 100h-55l47 174h135l-41 -151q-31 -109 -82 -160t-153 -80zM272 870l47 174h136l-47 -174h-136z" />
<glyph unicode="&#x3c;" horiz-adv-x="1310" d="M160 680l22 82l1084 493l-31 -120l-938 -422l711 -426l-29 -101z" />
<glyph unicode="=" horiz-adv-x="1310" d="M166 438l29 105h929l-28 -105h-930zM291 899l26 105h930l-26 -105h-930z" />
<glyph unicode="&#x3e;" horiz-adv-x="1310" d="M104 186l31 121l938 422l-711 426l29 100l819 -493l-22 -82z" />
<glyph unicode="?" horiz-adv-x="1093" d="M207 1245q84 84 200.5 145.5t274.5 61.5q96 0 172 -26.5t129 -74.5t82 -114t29 -143q0 -102 -44 -181t-119 -136.5t-173.5 -93.5t-206.5 -52l-88 -256h-66l62 332l14 10q113 8 207 36.5t161.5 77t105.5 114t38 147.5q0 66 -24.5 114.5t-66.5 81.5t-98.5 50.5t-121.5 17.5 q-125 0 -228.5 -55.5t-173.5 -124.5zM262 0l47 174h135l-47 -174h-135z" />
<glyph unicode="@" horiz-adv-x="2007" d="M135 473q0 199 80 377t216 313t319.5 215t390.5 80q190 0 338.5 -56t252 -153.5t157 -229.5t53.5 -284q0 -145 -40 -254.5t-102.5 -183.5t-137.5 -110.5t-142 -36.5q-111 0 -172.5 55t-75.5 149q-162 -209 -381 -209q-68 0 -126 24t-101 68t-69 106.5t-26 141.5 q0 113 43 211.5t113 172t160 116.5t182 43q66 0 117 -18.5t90 -49t66.5 -70.5t41.5 -83l62 201l96 -27l-154 -496q-16 -53 -15 -100t18.5 -83t52.5 -56.5t88 -20.5q51 0 110.5 31t110.5 93.5t85 158.5t34 227q0 137 -49 257t-143.5 209t-229.5 140.5t-307 51.5 q-193 0 -363 -75t-297 -201t-200.5 -293t-73.5 -351q0 -166 56 -302t158.5 -232.5t249 -149.5t324.5 -53q117 0 218.5 22.5t205.5 69.5l29 -59q-111 -51 -219.5 -75t-233.5 -24q-197 0 -355.5 57.5t-270 163t-173 254t-61.5 328.5zM684 489q0 -119 64.5 -183t162.5 -64 q78 0 154 35.5t135.5 95t96 136.5t36.5 157q0 117 -69.5 191.5t-192.5 74.5q-80 0 -150.5 -36t-123 -96.5t-83 -140t-30.5 -170.5z" />
<glyph unicode="A" horiz-adv-x="1554" d="M-70 0l1055 1444h102l281 -1444h-108l-74 401h-846l-291 -401h-119zM410 498h755l-153 829z" />
<glyph unicode="B" horiz-adv-x="1468" d="M74 0l385 1434h530q197 0 313.5 -86t116.5 -240q0 -80 -29.5 -144.5t-81 -113.5t-121 -81t-147.5 -48q55 -14 105.5 -39t88.5 -61.5t59.5 -86t21.5 -112.5q0 -92 -41 -170t-119 -133.5t-187.5 -87t-248.5 -31.5h-645zM207 98h518q223 0 352 85t129 239q0 63 -28.5 110.5 t-78.5 79t-120 47t-152 15.5h-467zM387 772h442q109 0 198 23.5t151.5 66.5t96.5 103.5t34 132.5q0 119 -88 178t-242 59h-440z" />
<glyph unicode="C" horiz-adv-x="1511" d="M188 555q0 174 68 337t183.5 289t271 201.5t333.5 75.5q197 0 329 -88t198 -221l-92 -49q-70 121 -170.5 191.5t-270.5 70.5q-156 0 -290 -68.5t-234 -181.5t-157.5 -257t-57.5 -296q0 -113 37 -203t101.5 -153.5t153.5 -97t193 -33.5q160 0 273.5 58t212.5 157l71 -66 q-49 -51 -106 -96t-127 -79t-153 -53.5t-181 -19.5q-119 0 -225.5 40t-186 115t-127 183.5t-47.5 243.5z" />
<glyph unicode="D" horiz-adv-x="1579" d="M74 0l385 1434h321q168 0 313.5 -47.5t243.5 -145.5q76 -76 117 -176t41 -234q0 -166 -57.5 -306t-165.5 -249q-129 -129 -317.5 -202.5t-411.5 -73.5h-469zM207 98h350q195 0 355.5 63.5t279.5 182.5q92 92 142 214t50 265q0 221 -133 351q-80 80 -201.5 120.5 t-275.5 40.5h-235z" />
<glyph unicode="E" horiz-adv-x="1329" d="M74 0l385 1434h1009l-26 -99h-903l-152 -563h811l-27 -98h-811l-153 -576h913l-26 -98h-1020z" />
<glyph unicode="F" horiz-adv-x="1343" d="M74 0l385 1434h1009l-26 -99h-903l-158 -587h811l-27 -99h-811l-174 -649h-106z" />
<glyph unicode="G" horiz-adv-x="1609" d="M193 578q0 166 66.5 324.5t183 281.5t277.5 198.5t347 75.5q111 0 193.5 -22.5t146 -59.5t108 -85t76.5 -99l-84 -55q-31 47 -69.5 88t-92 71.5t-124 48t-164.5 17.5q-162 0 -300.5 -67.5t-238.5 -177t-157.5 -250t-57.5 -285.5q0 -119 38 -214.5t105.5 -162t161.5 -101 t209 -34.5q129 0 232.5 32.5t181.5 83.5l131 459h-477l26 98h582l-176 -616q-117 -76 -238 -115t-268 -39q-133 0 -246.5 43t-196.5 121t-129 190.5t-46 250.5z" />
<glyph unicode="H" horiz-adv-x="1548" d="M74 0l385 1434h106l-178 -664h907l179 664h106l-385 -1434h-107l181 672h-908l-180 -672h-106z" />
<glyph unicode="I" horiz-adv-x="561" d="M88 0l385 1434h107l-385 -1434h-107z" />
<glyph unicode="J" horiz-adv-x="1101" d="M-10 309l94 33q41 -131 114.5 -198.5t198.5 -67.5q154 0 260 106q55 55 93 133t67 181l252 938h107l-256 -953q-33 -123 -78 -211t-113 -155q-66 -66 -153 -100.5t-175 -34.5q-90 0 -158.5 25.5t-118.5 70.5t-83 105.5t-51 127.5z" />
<glyph unicode="K" horiz-adv-x="1462" d="M74 0l385 1434h106l-250 -932l1147 932h158l-797 -641l434 -793h-122l-400 731l-459 -373l-96 -358h-106z" />
<glyph unicode="L" horiz-adv-x="1228" d="M74 0l385 1434h106l-358 -1336h842l-27 -98h-948z" />
<glyph unicode="M" horiz-adv-x="1779" d="M74 0l385 1434h88l348 -848l803 848h112l-385 -1434h-106l334 1245l-789 -825h-8l-346 825l-334 -1245h-102z" />
<glyph unicode="N" horiz-adv-x="1609" d="M74 0l385 1434h98l645 -1256l338 1256h102l-385 -1434h-77l-660 1282l-344 -1282h-102z" />
<glyph unicode="O" horiz-adv-x="1732" d="M197 590q0 168 64.5 324.5t177 277.5t262 193.5t321.5 72.5q135 0 248.5 -48t195.5 -131t128 -195.5t46 -241.5q0 -168 -64.5 -325t-177 -277.5t-262 -193.5t-321.5 -73q-135 0 -248.5 48.5t-195.5 131.5t-128 195.5t-46 241.5zM307 590q0 -111 37 -205t103.5 -164.5 t159.5 -110.5t208 -40q152 0 282 65.5t226 173t151.5 246.5t55.5 287q0 111 -37 205t-103.5 164.5t-159.5 110.5t-208 40q-152 0 -282 -65.5t-226 -173t-151.5 -247t-55.5 -286.5z" />
<glyph unicode="P" horiz-adv-x="1357" d="M74 0l385 1434h446q129 0 229.5 -32t165.5 -97q98 -98 99 -256q0 -123 -49.5 -218.5t-141.5 -161t-223 -99t-295 -33.5h-364l-146 -537h-106zM350 633h344q291 0 444.5 106.5t153.5 304.5q0 117 -73 191q-100 100 -316 100h-364z" />
<glyph unicode="Q" horiz-adv-x="1732" d="M197 590q0 168 64.5 324.5t177 277.5t262 193.5t321.5 72.5q135 0 248.5 -48t195.5 -131t128 -195.5t46 -241.5q0 -188 -80.5 -361.5t-218.5 -296.5l154 -168l-78 -65l-147 174q-98 -72 -213 -112t-242 -40q-135 0 -248.5 48.5t-195.5 131.5t-128 195.5t-46 241.5z M307 590q0 -111 37 -205t103.5 -164.5t159.5 -110.5t208 -40q111 0 208 34.5t181 94.5l-239 266l77 67l234 -274q119 111 186.5 264.5t67.5 319.5q0 111 -37 205t-103.5 164.5t-159.5 110.5t-208 40q-152 0 -282 -65.5t-226 -173t-151.5 -247t-55.5 -286.5z" />
<glyph unicode="R" horiz-adv-x="1460" d="M74 0l385 1434h514q223 0 349 -94.5t126 -266.5q0 -90 -34 -164.5t-93 -134.5q-72 -72 -181.5 -114t-240.5 -56l315 -604h-122l-308 594h-444l-160 -594h-106zM365 690h430q160 0 272.5 40t177.5 106q96 96 96 231q0 123 -92 195.5t-280 72.5h-430z" />
<glyph unicode="S" horiz-adv-x="1306" d="M41 254l82 59q92 -119 209 -178t291 -59q88 0 163.5 23.5t131 65.5t87 99.5t31.5 124.5q0 47 -16 85t-53 72t-97.5 66.5t-146.5 65.5q-111 43 -188.5 83t-127 84t-72 96t-22.5 118q0 82 37 153.5t104.5 126t162 85t210.5 30.5q162 0 291 -61.5t207 -157.5l-82 -66 q-78 92 -184.5 140.5t-241.5 48.5q-92 0 -165.5 -24.5t-124 -64.5t-78 -92.5t-27.5 -109.5q0 -100 83 -162.5t259 -130.5q201 -76 291 -160t90 -217q0 -88 -40 -163.5t-110.5 -132t-169 -89t-213.5 -32.5q-197 0 -339 73.5t-232 200.5z" />
<glyph unicode="T" horiz-adv-x="1259" d="M287 1335l26 99h1106l-26 -99h-500l-358 -1335h-107l358 1335h-499z" />
<glyph unicode="U" horiz-adv-x="1548" d="M197 428q0 59 7 113.5t21 107.5l209 785h107l-222 -834q-8 -31 -13 -74t-5 -90q0 -76 25.5 -142.5t77 -115.5t131 -76.5t186.5 -27.5q96 0 186 36.5t164 110.5q59 59 112.5 154.5t88.5 226.5l223 832h107l-230 -854q-37 -137 -94 -242t-133 -180q-88 -88 -197.5 -134.5 t-234.5 -46.5q-129 0 -225.5 35t-161 95.5t-97 142.5t-32.5 178z" />
<glyph unicode="V" horiz-adv-x="1462" d="M291 1434h110l203 -1319l914 1319h120l-1013 -1444h-95z" />
<glyph unicode="W" horiz-adv-x="2199" d="M307 1434h111l108 -1276l762 1280h82l78 -1280l793 1276h118l-907 -1444h-86l-86 1245l-754 -1245h-86z" />
<glyph unicode="X" horiz-adv-x="1417" d="M-47 0l749 741l-380 693h114l342 -631l635 631h137l-721 -711l394 -723h-115l-354 662l-664 -662h-137z" />
<glyph unicode="Y" horiz-adv-x="1368" d="M260 1434h117l330 -770l745 770h143l-862 -879l-147 -555h-107l156 582z" />
<glyph unicode="Z" horiz-adv-x="1355" d="M-39 0l16 59l1303 1278h-926l27 97h1092l-17 -60l-1302 -1278h966l-26 -96h-1133z" />
<glyph unicode="[" horiz-adv-x="880" d="M33 -266l456 1700h560l-23 -78h-465l-414 -1544h465l-20 -78h-559z" />
<glyph unicode="\" d="M301 1634h90l453 -1896h-90z" />
<glyph unicode="]" horiz-adv-x="880" d="M-137 -266l22 78h465l414 1544h-465l20 78h560l-457 -1700h-559z" />
<glyph unicode="^" d="M264 1010l438 430h91l208 -430h-96l-170 342l-354 -342h-117z" />
<glyph unicode="_" horiz-adv-x="1228" d="M-233 -328l24 90h1239l-24 -90h-1239z" />
<glyph unicode="`" d="M592 1430l127 61l106 -272h-71z" />
<glyph unicode="a" horiz-adv-x="1169" d="M47 268q0 86 35 157t97.5 120t149.5 75.5t189 26.5q113 0 218.5 -18.5t183.5 -40.5l8 28q6 23 10 52.5t4 52.5q0 119 -81 182.5t-234 63.5q-86 0 -157 -14.5t-146 -41.5l-19 90q78 29 155 44.5t175 15.5q193 0 299 -87t106 -239q0 -29 -5 -65.5t-15 -71.5l-160 -598h-98 l47 180q-76 -90 -179.5 -147.5t-240.5 -57.5q-66 0 -127 18.5t-109.5 55.5t-77 91.5t-28.5 127.5zM154 281q0 -98 68.5 -155.5t185.5 -57.5q74 0 147.5 24.5t138 70.5t112.5 109.5t68 143.5l25 92q-80 20 -179 34.5t-216 14.5q-78 0 -142.5 -20.5t-110.5 -57.5t-71.5 -87 t-25.5 -111z" />
<glyph unicode="b" horiz-adv-x="1339" d="M51 0l402 1495h100l-178 -655q78 94 185.5 161.5t248.5 67.5q90 0 167 -32.5t133 -91t88 -139.5t32 -177q0 -139 -48 -259t-130 -208t-188.5 -138.5t-223.5 -50.5q-88 0 -156.5 25t-119 65.5t-85 94t-55.5 108.5l-71 -266h-101zM274 432q0 -76 26 -142.5t74 -115.5 t114.5 -77.5t146.5 -28.5q106 0 195.5 45t154 120.5t100 175t35.5 207.5q0 80 -23.5 146.5t-66.5 114t-102.5 73t-130.5 25.5q-98 0 -191.5 -46t-167 -121t-119 -173t-45.5 -203z" />
<glyph unicode="c" horiz-adv-x="1153" d="M102 426q0 129 49.5 244.5t134.5 205t196.5 141.5t234.5 52q80 0 145.5 -20.5t115.5 -56.5t87 -81t61 -94l-84 -47q-47 84 -123.5 144.5t-207.5 60.5q-100 0 -190.5 -44t-159 -120t-109.5 -173t-41 -206q0 -88 29.5 -155.5t79 -113.5t113 -69.5t130.5 -23.5q102 0 184 41 t154 108l68 -65q-80 -78 -181.5 -128.5t-230.5 -50.5q-86 0 -168 30t-145.5 88.5t-102.5 142t-39 190.5z" />
<glyph unicode="d" horiz-adv-x="1339" d="M111 414q0 139 48 259t130 208t188.5 138t222.5 50q88 0 157 -24.5t119 -65.5t85 -94.5t55 -108.5l193 719h100l-399 -1495h-101l54 203q-78 -94 -185 -162t-248 -68q-90 0 -166.5 33t-133 91.5t-88 139t-31.5 177.5zM219 426q0 -80 23.5 -146.5t66.5 -113.5t102.5 -72.5 t131.5 -25.5q98 0 191 46t167 120.5t119 173t45 202.5q0 76 -25.5 142.5t-73.5 116t-115 78t-146 28.5q-106 0 -195.5 -45t-154 -121t-100.5 -175t-36 -208z" />
<glyph unicode="e" horiz-adv-x="1193" d="M102 414q0 123 47.5 240.5t128 209.5t191.5 148.5t238 56.5q98 0 171.5 -31.5t124 -87t75 -128t24.5 -152.5q0 -100 -29 -183h-858q-2 -16 -3 -34.5t-1 -34.5q0 -80 25.5 -143.5t70.5 -109.5t109.5 -70.5t140.5 -24.5q119 0 200 38.5t156 100.5l60 -72 q-82 -68 -178.5 -115t-237.5 -47q-100 0 -183 32t-143.5 90.5t-94.5 139t-34 177.5zM233 578h758q4 14 6 35.5t2 50.5q0 63 -17 119.5t-54 99.5t-92.5 68.5t-130.5 25.5q-88 0 -164 -32t-137.5 -87t-104.5 -128t-66 -152z" />
<glyph unicode="f" horiz-adv-x="741" d="M113 0l256 952h-152l25 92h151l41 152q80 299 334 299q59 0 112.5 -13.5t96.5 -35.5l-25 -90q-53 25 -95 37t-93 12q-82 0 -143.5 -54.5t-92.5 -176.5l-34 -130h376l-24 -92h-377l-256 -952h-100z" />
<glyph unicode="g" horiz-adv-x="1339" d="M-10 -137l73 74q84 -78 189.5 -126.5t234.5 -48.5q111 0 191 33t131 84q53 53 86 120t57 155l37 131q-78 -82 -183.5 -144.5t-246.5 -62.5q-84 0 -163 27.5t-139 80t-97 128t-37 169.5q0 131 51 238.5t134 184.5t189.5 120t217.5 43q90 0 156.5 -24.5t114.5 -63.5t81 -89 t55 -101l68 253h100l-243 -915q-29 -109 -70 -183.5t-94 -127.5q-74 -74 -171.5 -112t-228.5 -38q-139 0 -269 52.5t-224 142.5zM231 489q0 -78 30 -137t78 -99t110.5 -60.5t128.5 -20.5q98 0 188 40t159.5 105.5t110.5 149.5t41 172q0 61 -24.5 121.5t-72.5 107.5 t-115.5 76t-153.5 29q-92 0 -178.5 -35t-153 -99.5t-107.5 -152.5t-41 -197z" />
<glyph unicode="h" horiz-adv-x="1247" d="M51 0l402 1495h100l-174 -645q78 92 171 155.5t224 63.5q156 0 249 -90t93 -242q0 -35 -6 -72.5t-16 -74.5l-156 -590h-100l159 598q8 29 12.5 64.5t4.5 64.5q0 117 -72 184.5t-197 67.5q-68 0 -135 -28.5t-126.5 -81t-105.5 -123t-69 -156.5l-157 -590h-101z" />
<glyph unicode="i" horiz-adv-x="512" d="M66 0l280 1044h100l-280 -1044h-100zM408 1317l36 137h125l-37 -137h-124z" />
<glyph unicode="j" horiz-adv-x="509" d="M-236 -313l25 90q23 -6 48.5 -11.5t47.5 -5.5q53 0 93 34t61 108l307 1142h100l-309 -1150q-29 -109 -92 -168.5t-151 -59.5q-35 0 -64 4t-66 17zM408 1317l36 137h125l-37 -137h-124z" />
<glyph unicode="k" horiz-adv-x="1146" d="M51 0l402 1495h100l-297 -1108l811 657h145l-581 -466l311 -578h-117l-278 516l-328 -262l-67 -254h-101z" />
<glyph unicode="l" horiz-adv-x="512" d="M66 0l401 1495h100l-401 -1495h-100z" />
<glyph unicode="m" horiz-adv-x="1947" d="M51 0l279 1044h100l-51 -194q78 94 164 156.5t211 62.5q72 0 125 -22.5t90 -58.5t59.5 -82t30.5 -93q72 117 181.5 186.5t256.5 69.5q72 0 131.5 -24.5t102.5 -68.5t67.5 -104.5t24.5 -134.5q0 -35 -8.5 -72.5t-18.5 -74.5l-156 -590h-100l160 598q8 29 12 64.5t4 64.5 q0 117 -66.5 184.5t-181.5 67.5q-63 0 -127.5 -29.5t-121 -82t-100.5 -123t-66 -154.5l-156 -590h-100l159 598q8 29 12.5 64.5t4.5 64.5q0 117 -66.5 184.5t-181.5 67.5q-63 0 -128 -29.5t-121 -82t-100 -123t-67 -154.5l-157 -590h-101z" />
<glyph unicode="n" horiz-adv-x="1251" d="M51 0l279 1044h100l-51 -194q78 92 171 155.5t224 63.5q156 0 249 -90t93 -242q0 -35 -6 -72.5t-16 -74.5l-156 -590h-100l159 598q8 29 12.5 64.5t4.5 64.5q0 117 -72 184.5t-197 67.5q-68 0 -135 -28.5t-126.5 -81t-105.5 -123t-69 -156.5l-157 -590h-101z" />
<glyph unicode="o" horiz-adv-x="1296" d="M104 438q0 123 50.5 238t135.5 202t197.5 139t237.5 52q104 0 189 -35t146.5 -96t95.5 -146t34 -186q0 -127 -51.5 -241.5t-137.5 -200.5t-198.5 -137.5t-233.5 -51.5q-104 0 -189 35t-146.5 96.5t-95.5 146.5t-34 185zM213 442q0 -178 101.5 -275t265.5 -97q96 0 186 43 t159.5 115.5t112.5 169t43 204.5q0 178 -101 275.5t-265 97.5q-98 0 -189.5 -44t-161 -118t-110.5 -170t-41 -201z" />
<glyph unicode="p" horiz-adv-x="1339" d="M-37 -328l367 1372h100l-55 -204q78 94 185.5 161.5t248.5 67.5q90 0 167 -32.5t133 -91t88 -139.5t32 -177q0 -139 -48 -259t-130 -208t-188.5 -138.5t-223.5 -50.5q-88 0 -156.5 25t-119 65.5t-85 94t-55.5 108.5l-160 -594h-100zM274 432q0 -76 26 -142.5t74 -115.5 t114.5 -77.5t146.5 -28.5q106 0 195.5 45t154 120.5t100 175t35.5 207.5q0 80 -23.5 146.5t-66.5 114t-102.5 73t-130.5 25.5q-98 0 -191.5 -46t-167 -121t-119 -173t-45.5 -203z" />
<glyph unicode="q" horiz-adv-x="1339" d="M111 414q0 139 48 259t130 208t188.5 138t222.5 50q88 0 157 -24.5t119 -64.5t85 -93t55 -109l72 266h100l-387 -1454h-100l164 615q-78 -94 -186.5 -163t-248.5 -69q-90 0 -166.5 33t-133 91.5t-88 139t-31.5 177.5zM219 426q0 -80 23.5 -146.5t66.5 -113.5t102.5 -72.5 t131.5 -25.5q98 0 191 46t167 121.5t119 174t45 202.5q0 76 -25.5 141.5t-73.5 115t-115 78t-146 28.5q-106 0 -195.5 -45t-154 -121t-100.5 -175t-36 -208z" />
<glyph unicode="r" horiz-adv-x="811" d="M51 0l279 1044h100l-78 -296q102 145 236 234q121 80 268 80q16 0 33 -1l-29 -111h-8q-90 0 -181 -34.5t-170 -101t-140.5 -164t-94.5 -222.5l-114 -428h-101z" />
<glyph unicode="s" horiz-adv-x="1013" d="M2 158l72 71q86 -84 182 -121.5t201 -37.5q49 0 98 14t87 42t61.5 65.5t23.5 84.5q0 31 -10 57.5t-36 51.5t-70 49.5t-111 48.5q-150 55 -221.5 115.5t-71.5 165.5q0 61 27.5 116.5t77.5 97.5t122 65.5t160 23.5q111 0 211 -42t166 -97l-66 -76q-59 49 -144 86t-177 37 q-66 0 -117 -16.5t-85 -44t-51.5 -62.5t-17.5 -72q0 -31 9.5 -55.5t36 -48t71.5 -48t119 -53.5q158 -61 221.5 -124.5t63.5 -157.5q0 -68 -31 -126t-84 -100t-124 -66t-151 -24q-123 0 -237.5 45.5t-204.5 135.5z" />
<glyph unicode="t" horiz-adv-x="811" d="M172 188q0 25 4 52.5t8 48.5l178 663h-151l25 92h151l90 334h101l-91 -334h361l-25 -92h-360l-178 -665q-4 -20 -7.5 -45t-3.5 -43q0 -66 46.5 -95.5t123.5 -29.5q66 0 152 32l-27 -98q-41 -16 -73.5 -21t-73.5 -5q-104 0 -177 50t-73 156z" />
<glyph unicode="u" horiz-adv-x="1247" d="M131 307q0 35 6 73t17 75l155 589h101l-160 -598q-8 -29 -12.5 -64.5t-4.5 -64.5q0 -117 72 -184t197 -67q68 0 135.5 28.5t126.5 80.5t105 123t69 157l158 589h100l-278 -1044h-101l51 195q-76 -92 -169 -156t-226 -64q-156 0 -249 90.5t-93 241.5z" />
<glyph unicode="v" horiz-adv-x="1140" d="M182 1044h109l145 -931l641 931h121l-745 -1052h-86z" />
<glyph unicode="w" horiz-adv-x="1730" d="M203 1044h102l76 -909l559 914h80l72 -914l563 909h110l-665 -1052h-88l-72 895l-553 -895h-84z" />
<glyph unicode="x" horiz-adv-x="1144" d="M-59 0l581 541l-276 503h114l230 -440l459 440h135l-549 -512l289 -532h-115l-242 469l-491 -469h-135z" />
<glyph unicode="y" horiz-adv-x="1163" d="M-180 -262l55 82q33 -27 85 -43.5t93 -16.5q80 0 159 53.5t175 192.5l-213 1038h107l182 -933l629 933h120l-743 -1081q-113 -164 -214 -230.5t-214 -66.5q-119 0 -221 72z" />
<glyph unicode="z" horiz-adv-x="1118" d="M-35 0l17 57l972 897h-704l24 90h869l-17 -57l-972 -897h739l-25 -90h-903z" />
<glyph unicode="{" horiz-adv-x="983" d="M133 549l21 78h53q80 0 136 20.5t96 65.5t66.5 116.5t47.5 174.5q20 102 55 183t98.5 140t161 94t240.5 43l-6 -75q-113 -6 -192 -35t-131 -80t-81.5 -121t-46.5 -160q-20 -106 -46.5 -180t-63.5 -121t-87.5 -71.5t-115.5 -36.5q141 -43 141 -170q0 -23 -4 -54.5 t-14 -62.5q-16 -53 -30.5 -117.5t-14.5 -118.5q0 -102 55 -174.5t197 -111.5l-29 -64q-88 18 -150.5 54t-100.5 81t-55.5 98.5t-17.5 108.5q0 27 2 50.5t8.5 51t15.5 62.5t21 82q18 66 19 113q0 66 -44 101.5t-151 35.5h-53z" />
<glyph unicode="|" horiz-adv-x="585" d="M289 -262v1896h90v-1896h-90z" />
<glyph unicode="}" horiz-adv-x="983" d="M-90 -289l6 76q115 6 192.5 34.5t130 80t82 122t46.5 158.5q20 109 46.5 181.5t63.5 119.5t87 72t116 37q-141 43 -141 170q0 23 4 54.5t14 62.5q16 53 30.5 117.5t14.5 117.5q0 102 -55 175t-197 112l29 63q90 -18 151.5 -54t99.5 -81t55 -98t17 -109q0 -27 -2 -50 t-8 -51t-15 -62.5t-22 -81.5q-18 -63 -18 -113q0 -66 44 -101.5t150 -35.5h54l-21 -78h-53q-80 0 -136.5 -20.5t-96 -65.5t-66.5 -117t-47 -174q-20 -100 -55 -182t-98.5 -141.5t-160 -94.5t-241.5 -43z" />
<glyph unicode="~" horiz-adv-x="942" d="M178 532q49 100 98.5 148.5t114.5 48.5q47 0 75 -19.5t62 -52.5q35 -33 53.5 -47t45.5 -14q33 0 59.5 30.5t61.5 92.5l77 -31q-49 -100 -98 -148t-115 -48q-47 0 -74.5 19t-62.5 52t-53.5 47.5t-44.5 14.5q-33 0 -59.5 -31t-61.5 -92z" />
<glyph unicode="&#xa1;" horiz-adv-x="514" d="M57 0l39 143l277 916h57l-215 -916l-39 -143h-119zM387 1260l47 174h135l-47 -174h-135z" />
<glyph unicode="&#xa2;" horiz-adv-x="1142" d="M154 621q0 133 49 250.5t134 206.5t198.5 141.5t242.5 52.5h27.5t28.5 -2l69 176h103l-78 -193q109 -29 175 -92t101 -139l-84 -47q-37 66 -90 117t-143 73l-348 -886q35 -6 73 -7q113 0 201 40t166 110l68 -66q-86 -80 -191.5 -129t-249.5 -49q-45 0 -96 10l-80 -200 h-102l90 227q-121 51 -192.5 158.5t-71.5 247.5zM262 623q0 -111 51.5 -195t143.5 -125l344 875h-29q-106 0 -198.5 -44t-162 -120t-109.5 -177.5t-40 -213.5z" />
<glyph unicode="&#xa3;" horiz-adv-x="1277" d="M-4 0l14 51l187 41l143 533h-176l26 98h177l71 268q27 98 69 181t95 137q68 68 148.5 103.5t185.5 35.5q141 0 234.5 -63.5t146.5 -161.5l-88 -54q-53 86 -121 134.5t-178 48.5q-145 0 -248 -103q-94 -94 -143 -276l-68 -250h610l-26 -98h-611l-141 -529h766l-27 -96 h-1046z" />
<glyph unicode="&#xa4;" horiz-adv-x="1400" d="M76 502l26 98h164q6 133 43 252h-141l27 98h149q43 109 109.5 202t151.5 160.5t186.5 106.5t218.5 39q90 0 162.5 -25.5t128 -69.5t95.5 -103.5t62 -126.5l-92 -37q-51 121 -137 193.5t-238 72.5q-86 0 -166 -31t-148.5 -85t-123.5 -130t-96 -166h616l-26 -98h-627 q-18 -59 -29.5 -122.5t-15.5 -129.5h606l-27 -98h-579q4 -94 32.5 -173t78 -136.5t120 -89t158.5 -31.5q133 0 229.5 53t182.5 147l71 -61q-92 -102 -206.5 -169t-278.5 -67q-104 0 -192.5 36t-155 104.5t-105.5 166t-45 220.5h-188z" />
<glyph unicode="&#xa5;" horiz-adv-x="1433" d="M152 256l24 92h430l53 201h-430l25 92h389l-348 793h121l329 -770l746 770h139l-778 -793h377l-25 -92h-438l-53 -201h438l-25 -92h-438l-67 -256h-107l68 256h-430z" />
<glyph unicode="&#xa7;" horiz-adv-x="1294" d="M137 147l68 76q61 -59 165.5 -105t233.5 -46q104 0 177 44t73 115q0 66 -68.5 112t-216.5 99q-193 68 -289 133.5t-96 165.5q0 59 31 108.5t86 83.5t129 52.5t160 18.5q-63 29 -110.5 77.5t-47.5 118.5q0 59 30 106.5t80 80t117.5 50t143.5 17.5q141 0 263 -51t189 -117 l-67 -76q-61 59 -165.5 105.5t-234.5 46.5q-104 0 -176.5 -44t-72.5 -116q0 -66 68.5 -112t215.5 -99q193 -68 289 -133t96 -166q0 -59 -30.5 -108t-86 -83t-129 -52.5t-159.5 -18.5q63 -29 110.5 -78t47.5 -119q0 -59 -30 -106t-80 -80t-117.5 -50t-143.5 -17 q-141 0 -263 51t-190 116zM291 750q0 -59 62.5 -106.5t209.5 -98.5q61 -23 114.5 -33t125.5 -10q66 0 120 14t94 40t62.5 58.5t22.5 69.5q0 59 -62.5 106.5t-210.5 98.5q-63 23 -115 33t-124 10q-63 0 -118.5 -14.5t-95.5 -40t-62.5 -58.5t-22.5 -69z" />
<glyph unicode="&#xa8;" d="M436 1219l45 163h142l-45 -163h-142zM770 1219l45 163h141l-45 -163h-141z" />
<glyph unicode="&#xa9;" horiz-adv-x="1699" d="M160 715q0 152 57 287t157.5 236t237 160.5t291.5 59.5q156 0 291 -58.5t234.5 -158.5t156.5 -235.5t57 -286.5q0 -152 -57 -287t-157.5 -236.5t-236.5 -161t-292 -59.5t-291 58.5t-234.5 159t-156.5 235.5t-57 287zM221 715q0 -141 51.5 -265t142.5 -217.5t215 -146.5 t269 -53t270 54t216.5 147.5t143.5 218.5t52 266t-51 265t-142.5 217t-215 146.5t-269.5 53.5q-145 0 -270 -54.5t-216 -147.5t-143.5 -218t-52.5 -266zM537 727q0 80 28.5 150.5t78.5 124t118.5 84t148.5 30.5q100 0 166 -36t123 -89l-61 -63q-45 43 -101.5 74.5 t-128.5 31.5q-61 0 -113.5 -23.5t-90 -65.5t-58 -97t-20.5 -119q0 -63 22.5 -118.5t60.5 -97.5t90 -66.5t111 -24.5q76 0 129.5 27.5t106.5 78.5l57 -57q-59 -59 -127 -95t-168 -36q-80 0 -147.5 30.5t-117.5 83t-78.5 123t-28.5 150.5z" />
<glyph unicode="&#xaa;" horiz-adv-x="798" d="M119 600l20 82h500l-21 -82h-499zM217 993q0 98 76 157.5t192 59.5q53 0 105.5 -10t93.5 -20l4 12q4 10 6 26.5t2 28.5q0 119 -159 119q-47 0 -86 -8t-78 -23l-15 72q43 16 89.5 25.5t103.5 9.5q111 0 169 -48t58 -132q0 -18 -4 -39t-8 -41l-88 -330h-82l29 102 q-45 -49 -102.5 -81.5t-131.5 -32.5q-72 0 -123 41t-51 112zM303 1001q0 -43 30 -69.5t79 -26.5q39 0 78.5 15.5t74.5 41t60.5 59.5t36.5 73l8 28q-39 10 -85 17.5t-100 7.5q-80 0 -131 -40t-51 -106z" />
<glyph unicode="&#xab;" horiz-adv-x="1054" d="M92 514l4 16l443 428l73 -57l-393 -393l170 -377l-84 -45zM510 514l4 16l442 428l74 -57l-393 -393l170 -377l-84 -45z" />
<glyph unicode="&#xad;" horiz-adv-x="837" d="M152 551l30 115h549l-31 -115h-548z" />
<glyph unicode="&#xae;" horiz-adv-x="1699" d="M160 715q0 152 57 287t157.5 236t237 160.5t291.5 59.5q156 0 291 -58.5t234.5 -158.5t156.5 -235.5t57 -286.5q0 -152 -57 -287t-157.5 -236.5t-236.5 -161t-292 -59.5t-291 58.5t-234.5 159t-156.5 235.5t-57 287zM221 715q0 -141 51.5 -265t142.5 -217.5t215 -146.5 t269 -53t270 54t216.5 147.5t143.5 218.5t52 266t-51 265t-142.5 217t-215 146.5t-269.5 53.5q-145 0 -270 -54.5t-216 -147.5t-143.5 -218t-52.5 -266zM616 362v750h336q121 0 199 -58.5t78 -158.5q0 -92 -56.5 -146.5t-148.5 -70.5l250 -316h-115l-237 302h-217v-302h-89z M705 745h233q86 0 142.5 37t56.5 109q0 66 -50.5 101.5t-138.5 35.5h-243v-283z" />
<glyph unicode="&#xaf;" d="M389 1229l29 108h614l-28 -108h-615z" />
<glyph unicode="&#xb0;" horiz-adv-x="749" d="M180 1100q0 68 28 130t74 110.5t107.5 76t130.5 27.5q115 0 186.5 -74t71.5 -184q0 -68 -27.5 -130.5t-73.5 -110.5t-107.5 -75.5t-131.5 -27.5q-115 0 -186.5 73.5t-71.5 184.5zM272 1110q0 -86 49.5 -134t127.5 -48q47 0 90 20.5t75.5 54t52 78.5t19.5 95q0 86 -49 134 t-127 48q-47 0 -90 -20.5t-76 -54.5t-52.5 -79t-19.5 -94z" />
<glyph unicode="&#xb1;" horiz-adv-x="1228" d="M14 233l92 56q61 -94 163 -155.5t270 -61.5q92 0 167.5 24.5t131 67.5t85 100.5t29.5 122.5q0 76 -34.5 130t-95 90t-140.5 52.5t-172 16.5h-61l24 94h82q256 0 399.5 86t143.5 238q0 61 -25.5 110t-71 83t-106.5 52.5t-133 18.5q-125 0 -217 -39t-172 -102l-66 71 q84 68 193.5 117t261.5 49q90 0 171 -23.5t142.5 -68.5t98 -110.5t36.5 -151.5q0 -162 -116.5 -257t-315.5 -128q57 -16 109.5 -44t91.5 -68t62.5 -92t23.5 -120q0 -88 -41 -163.5t-113.5 -132t-170 -88.5t-208.5 -32q-186 0 -317 73t-201 185z" />
<glyph unicode="&#xb4;" d="M514 1219l254 272l127 -61l-277 -211h-104z" />
<glyph unicode="&#xb5;" horiz-adv-x="1732" d="M197 590q0 168 64.5 324.5t177 277.5t262 193.5t321.5 72.5q135 0 248.5 -48t195.5 -131t128 -195.5t46 -241.5q0 -188 -80.5 -361.5t-218.5 -296.5l154 -168l-78 -65l-147 174q-98 -72 -213 -112t-242 -40q-135 0 -248.5 48.5t-195.5 131.5t-128 195.5t-46 241.5z M307 590q0 -111 37 -205t103.5 -164.5t159.5 -110.5t208 -40q111 0 208 34.5t181 94.5l-239 266l77 67l234 -274q119 111 186.5 264.5t67.5 319.5q0 111 -37 205t-103.5 164.5t-159.5 110.5t-208 40q-152 0 -282 -65.5t-226 -173t-151.5 -247t-55.5 -286.5z" />
<glyph unicode="&#xb6;" horiz-adv-x="995" d="M209 913q0 123 46 219.5t132 163t210 102.5t280 36h149l-385 -1434h-109l144 539q-94 6 -179 28.5t-148.5 67.5t-101.5 113.5t-38 164.5z" />
<glyph unicode="&#xb7;" horiz-adv-x="473" d="M168 522l47 174h135l-47 -174h-135z" />
<glyph unicode="&#xb8;" d="M143 -250l256 270h88l-245 -323z" />
<glyph unicode="&#xba;" horiz-adv-x="798" d="M123 600l20 82h549l-20 -82h-549zM236 1098q0 68 26.5 131t73.5 110t109.5 76t132.5 29q119 0 192.5 -75t73.5 -189q0 -68 -26.5 -131.5t-74 -110.5t-108.5 -75.5t-133 -28.5q-121 0 -193.5 74.5t-72.5 189.5zM322 1102q0 -88 52 -140.5t134 -52.5q51 0 96 22.5t79 59.5 t53.5 85t19.5 100q0 88 -51.5 140t-133.5 52q-51 0 -97 -21.5t-80 -58.5t-53 -85t-19 -101z" />
<glyph unicode="&#xbb;" horiz-adv-x="1054" d="M23 141l393 394l-170 376l84 45l213 -428l-4 -16l-443 -428zM440 141l394 394l-170 376l84 45l213 -428l-5 -16l-442 -428z" />
<glyph unicode="&#xbf;" horiz-adv-x="1093" d="M104 340q0 102 44.5 181t119 136.5t173 94t206.5 51.5l88 256h66l-62 -332l-14 -10q-113 -8 -207 -37t-161.5 -77t-105.5 -113.5t-38 -147.5q0 -63 24.5 -113.5t66.5 -83t99.5 -50t120.5 -17.5q125 0 228.5 55t173.5 125l65 -70q-84 -84 -200.5 -145t-274.5 -61 q-94 0 -171 26.5t-130 74.5t-82 113.5t-29 143.5zM754 1260l47 174h135l-47 -174h-135z" />
<glyph unicode="&#xc0;" horiz-adv-x="1554" d="M-70 0l1055 1444h102l281 -1444h-108l-74 401h-846l-291 -401h-119zM410 498h755l-153 829zM897 1778l127 61l106 -272h-71z" />
<glyph unicode="&#xc1;" horiz-adv-x="1554" d="M-70 0l1055 1444h102l281 -1444h-108l-74 401h-846l-291 -401h-119zM410 498h755l-153 829zM1001 1567l254 272l127 -61l-277 -211h-104z" />
<glyph unicode="&#xc2;" horiz-adv-x="1554" d="M-70 0l1055 1444h102l281 -1444h-108l-74 401h-846l-291 -401h-119zM410 498h755l-153 829zM822 1567l272 249h82l137 -249h-90l-106 139l-197 -139h-98z" />
<glyph unicode="&#xc3;" horiz-adv-x="1554" d="M-70 0l1055 1444h102l281 -1444h-108l-74 401h-846l-291 -401h-119zM410 498h755l-153 829zM774 1593q49 100 98.5 148.5t114.5 48.5q47 0 75 -19.5t63 -52.5t53 -47t45 -14q33 0 59.5 30.5t61.5 92.5l78 -31q-49 -100 -98.5 -148.5t-114.5 -48.5q-47 0 -75 19.5 t-63 52.5t-53 47t-45 14q-33 0 -59.5 -30.5t-61.5 -92.5z" />
<glyph unicode="&#xc4;" horiz-adv-x="1554" d="M-70 0l1055 1444h102l281 -1444h-108l-74 401h-846l-291 -401h-119zM410 498h755l-153 829zM844 1567l45 163h142l-45 -163h-142zM1178 1567l45 163h141l-45 -163h-141z" />
<glyph unicode="&#xc5;" horiz-adv-x="1595" d="M-49 0l1020 1395q-94 45 -94 145q0 43 17 82t47 66.5t70 44t83 16.5q88 0 142 -48t54 -120q0 -76 -49 -132t-121 -73l269 -1376h-109l-74 401h-846l-290 -401h-119zM430 498h756l-154 829zM950 1540q0 -45 32 -73.5t91 -28.5t101.5 42t42.5 101q0 45 -32 73.5t-91 28.5 t-101.5 -42t-42.5 -101z" />
<glyph unicode="&#xc6;" horiz-adv-x="2187" d="M-66 0l1252 1434h1108l-27 -99h-883l-151 -563h790l-26 -98h-791l-153 -576h893l-27 -98h-999l108 401h-616l-349 -401h-129zM496 498h557l225 839h-55z" />
<glyph unicode="&#xc7;" horiz-adv-x="1511" d="M188 555q0 174 68 337t183.5 289t271 201.5t333.5 75.5q197 0 329 -88t198 -221l-92 -49q-70 121 -170.5 191.5t-270.5 70.5q-156 0 -290 -68.5t-234 -181.5t-157.5 -257t-57.5 -296q0 -113 37 -203t101.5 -153.5t153.5 -97t193 -33.5q160 0 273.5 58t212.5 157l71 -66 q-49 -51 -106 -96t-127 -79t-153 -53.5t-181 -19.5h-8l-211 -276l-98 53l219 232q-102 14 -191.5 60t-155 120t-103.5 173t-38 220z" />
<glyph unicode="&#xc8;" horiz-adv-x="1329" d="M74 0l385 1434h1009l-26 -99h-903l-152 -563h811l-27 -98h-811l-153 -576h913l-26 -98h-1020zM821 1778l127 61l106 -272h-71z" />
<glyph unicode="&#xc9;" horiz-adv-x="1329" d="M74 0l385 1434h1009l-26 -99h-903l-152 -563h811l-27 -98h-811l-153 -576h913l-26 -98h-1020zM846 1567l254 272l127 -61l-277 -211h-104z" />
<glyph unicode="&#xca;" horiz-adv-x="1329" d="M74 0l385 1434h1009l-26 -99h-903l-152 -563h811l-27 -98h-811l-153 -576h913l-26 -98h-1020zM727 1567l272 249h82l137 -249h-90l-106 139l-197 -139h-98z" />
<glyph unicode="&#xcb;" horiz-adv-x="1329" d="M74 0l385 1434h1009l-26 -99h-903l-152 -563h811l-27 -98h-811l-153 -576h913l-26 -98h-1020zM747 1567l45 163h142l-45 -163h-142zM1081 1567l45 163h141l-45 -163h-141z" />
<glyph unicode="&#xcc;" horiz-adv-x="561" d="M88 0l385 1434h107l-385 -1434h-107zM379 1778l127 61l106 -272h-71z" />
<glyph unicode="&#xcd;" horiz-adv-x="561" d="M88 0l385 1434h107l-385 -1434h-107zM475 1567l254 272l127 -61l-277 -211h-104z" />
<glyph unicode="&#xce;" horiz-adv-x="561" d="M88 0l385 1434h107l-385 -1434h-107zM303 1567l272 249h82l137 -249h-90l-106 139l-197 -139h-98z" />
<glyph unicode="&#xcf;" horiz-adv-x="561" d="M88 0l385 1434h107l-385 -1434h-107zM325 1567l45 163h142l-45 -163h-142zM659 1567l45 163h141l-45 -163h-141z" />
<glyph unicode="&#xd0;" horiz-adv-x="1640" d="M135 0l180 672h-153l26 98h154l178 664h322q168 0 313 -47.5t244 -145.5q76 -76 116.5 -176t40.5 -234q0 -166 -57 -306t-166 -249q-129 -129 -317.5 -202.5t-411.5 -73.5h-469zM268 98h350q195 0 356 63.5t279 182.5q92 92 142.5 214t50.5 265q0 221 -133 351 q-80 80 -202 120.5t-275 40.5h-236l-151 -565h475l-27 -98h-475z" />
<glyph unicode="&#xd1;" horiz-adv-x="1609" d="M74 0l385 1434h98l645 -1256l338 1256h102l-385 -1434h-77l-660 1282l-344 -1282h-102zM755 1593q49 100 98.5 148.5t114.5 48.5q47 0 75 -19.5t63 -52.5t53 -47t45 -14q33 0 59.5 30.5t61.5 92.5l78 -31q-49 -100 -98.5 -148.5t-114.5 -48.5q-47 0 -75 19.5t-63 52.5 t-53 47t-45 14q-33 0 -59.5 -30.5t-61.5 -92.5z" />
<glyph unicode="&#xd2;" horiz-adv-x="1732" d="M197 590q0 168 64.5 324.5t177 277.5t262 193.5t321.5 72.5q135 0 248.5 -48t195.5 -131t128 -195.5t46 -241.5q0 -168 -64.5 -325t-177 -277.5t-262 -193.5t-321.5 -73q-135 0 -248.5 48.5t-195.5 131.5t-128 195.5t-46 241.5zM307 590q0 -111 37 -205t103.5 -164.5 t159.5 -110.5t208 -40q152 0 282 65.5t226 173t151.5 246.5t55.5 287q0 111 -37 205t-103.5 164.5t-159.5 110.5t-208 40q-152 0 -282 -65.5t-226 -173t-151.5 -247t-55.5 -286.5zM957 1778l127 61l106 -272h-71z" />
<glyph unicode="&#xd3;" horiz-adv-x="1732" d="M197 590q0 168 64.5 324.5t177 277.5t262 193.5t321.5 72.5q135 0 248.5 -48t195.5 -131t128 -195.5t46 -241.5q0 -168 -64.5 -325t-177 -277.5t-262 -193.5t-321.5 -73q-135 0 -248.5 48.5t-195.5 131.5t-128 195.5t-46 241.5zM307 590q0 -111 37 -205t103.5 -164.5 t159.5 -110.5t208 -40q152 0 282 65.5t226 173t151.5 246.5t55.5 287q0 111 -37 205t-103.5 164.5t-159.5 110.5t-208 40q-152 0 -282 -65.5t-226 -173t-151.5 -247t-55.5 -286.5zM960 1567l254 272l127 -61l-277 -211h-104z" />
<glyph unicode="&#xd4;" horiz-adv-x="1732" d="M197 590q0 168 64.5 324.5t177 277.5t262 193.5t321.5 72.5q135 0 248.5 -48t195.5 -131t128 -195.5t46 -241.5q0 -168 -64.5 -325t-177 -277.5t-262 -193.5t-321.5 -73q-135 0 -248.5 48.5t-195.5 131.5t-128 195.5t-46 241.5zM307 590q0 -111 37 -205t103.5 -164.5 t159.5 -110.5t208 -40q152 0 282 65.5t226 173t151.5 246.5t55.5 287q0 111 -37 205t-103.5 164.5t-159.5 110.5t-208 40q-152 0 -282 -65.5t-226 -173t-151.5 -247t-55.5 -286.5zM861 1567l272 249h82l137 -249h-90l-106 139l-197 -139h-98z" />
<glyph unicode="&#xd5;" horiz-adv-x="1732" d="M197 590q0 168 64.5 324.5t177 277.5t262 193.5t321.5 72.5q135 0 248.5 -48t195.5 -131t128 -195.5t46 -241.5q0 -168 -64.5 -325t-177 -277.5t-262 -193.5t-321.5 -73q-135 0 -248.5 48.5t-195.5 131.5t-128 195.5t-46 241.5zM307 590q0 -111 37 -205t103.5 -164.5 t159.5 -110.5t208 -40q152 0 282 65.5t226 173t151.5 246.5t55.5 287q0 111 -37 205t-103.5 164.5t-159.5 110.5t-208 40q-152 0 -282 -65.5t-226 -173t-151.5 -247t-55.5 -286.5zM784 1593q49 100 98.5 148.5t114.5 48.5q47 0 75 -19.5t63 -52.5t53 -47t45 -14 q33 0 59.5 30.5t61.5 92.5l78 -31q-49 -100 -98.5 -148.5t-114.5 -48.5q-47 0 -75 19.5t-63 52.5t-53 47t-45 14q-33 0 -59.5 -30.5t-61.5 -92.5z" />
<glyph unicode="&#xd6;" horiz-adv-x="1732" d="M197 590q0 168 64.5 324.5t177 277.5t262 193.5t321.5 72.5q135 0 248.5 -48t195.5 -131t128 -195.5t46 -241.5q0 -168 -64.5 -325t-177 -277.5t-262 -193.5t-321.5 -73q-135 0 -248.5 48.5t-195.5 131.5t-128 195.5t-46 241.5zM307 590q0 -111 37 -205t103.5 -164.5 t159.5 -110.5t208 -40q152 0 282 65.5t226 173t151.5 246.5t55.5 287q0 111 -37 205t-103.5 164.5t-159.5 110.5t-208 40q-152 0 -282 -65.5t-226 -173t-151.5 -247t-55.5 -286.5zM862 1567l45 163h142l-45 -163h-142zM1196 1567l45 163h141l-45 -163h-141z" />
<glyph unicode="&#xd8;" horiz-adv-x="1732" d="M-35 -10l322 268q-43 72 -66.5 156t-23.5 176q0 168 64.5 324.5t177 277.5t262 193.5t321.5 72.5q145 0 263 -53t202 -145l219 184h141l-305 -256q47 -74 72.5 -161t25.5 -185q0 -168 -64.5 -325t-177 -277.5t-262 -193.5t-321.5 -73q-150 0 -270.5 56.5t-204.5 154.5 l-234 -194h-141zM307 590q0 -147 62 -264l1040 868q-68 78 -166 123t-221 45q-152 0 -282 -65.5t-226 -173t-151.5 -247t-55.5 -286.5zM418 250q66 -86 167 -133t230 -47q152 0 282 65.5t226 173t151.5 246.5t55.5 287q0 156 -70 278z" />
<glyph unicode="&#xd9;" horiz-adv-x="1548" d="M197 428q0 59 7 113.5t21 107.5l209 785h107l-222 -834q-8 -31 -13 -74t-5 -90q0 -76 25.5 -142.5t77 -115.5t131 -76.5t186.5 -27.5q96 0 186 36.5t164 110.5q59 59 112.5 154.5t88.5 226.5l223 832h107l-230 -854q-37 -137 -94 -242t-133 -180q-88 -88 -197.5 -134.5 t-234.5 -46.5q-129 0 -225.5 35t-161 95.5t-97 142.5t-32.5 178zM875 1778l127 61l106 -272h-71z" />
<glyph unicode="&#xda;" horiz-adv-x="1548" d="M197 428q0 59 7 113.5t21 107.5l209 785h107l-222 -834q-8 -31 -13 -74t-5 -90q0 -76 25.5 -142.5t77 -115.5t131 -76.5t186.5 -27.5q96 0 186 36.5t164 110.5q59 59 112.5 154.5t88.5 226.5l223 832h107l-230 -854q-37 -137 -94 -242t-133 -180q-88 -88 -197.5 -134.5 t-234.5 -46.5q-129 0 -225.5 35t-161 95.5t-97 142.5t-32.5 178zM899 1567l254 272l127 -61l-277 -211h-104z" />
<glyph unicode="&#xdb;" horiz-adv-x="1548" d="M197 428q0 59 7 113.5t21 107.5l209 785h107l-222 -834q-8 -31 -13 -74t-5 -90q0 -76 25.5 -142.5t77 -115.5t131 -76.5t186.5 -27.5q96 0 186 36.5t164 110.5q59 59 112.5 154.5t88.5 226.5l223 832h107l-230 -854q-37 -137 -94 -242t-133 -180q-88 -88 -197.5 -134.5 t-234.5 -46.5q-129 0 -225.5 35t-161 95.5t-97 142.5t-32.5 178zM793 1567l272 249h82l137 -249h-90l-106 139l-197 -139h-98z" />
<glyph unicode="&#xdc;" horiz-adv-x="1548" d="M197 428q0 59 7 113.5t21 107.5l209 785h107l-222 -834q-8 -31 -13 -74t-5 -90q0 -76 25.5 -142.5t77 -115.5t131 -76.5t186.5 -27.5q96 0 186 36.5t164 110.5q59 59 112.5 154.5t88.5 226.5l223 832h107l-230 -854q-37 -137 -94 -242t-133 -180q-88 -88 -197.5 -134.5 t-234.5 -46.5q-129 0 -225.5 35t-161 95.5t-97 142.5t-32.5 178zM803 1567l45 163h142l-45 -163h-142zM1137 1567l45 163h141l-45 -163h-141z" />
<glyph unicode="&#xdd;" horiz-adv-x="1368" d="M260 1434h117l330 -770l745 770h143l-862 -879l-147 -555h-107l156 582zM809 1567l254 272l127 -61l-277 -211h-104z" />
<glyph unicode="&#xde;" horiz-adv-x="1368" d="M74 0l385 1434h104l-67 -260h340q129 0 229 -32t166 -98q98 -98 98 -256q0 -123 -49 -218t-141 -160.5t-223.5 -99.5t-294.5 -34h-365l-76 -276h-106zM281 373h344q291 0 444.5 106.5t153.5 304.5q0 117 -74 191q-100 100 -315 100h-365z" />
<glyph unicode="&#xdf;" horiz-adv-x="1269" d="M51 0l275 1024q29 104 73.5 193.5t104.5 148.5q70 70 155.5 106.5t184.5 36.5q84 0 153.5 -24.5t120.5 -68.5t80 -104.5t29 -131.5q0 -92 -35 -162t-94.5 -122t-138 -88t-166.5 -60q68 -18 127 -46t103 -70t69.5 -96.5t25.5 -123.5q0 -88 -45 -165t-131 -133.5t-210 -88 t-281 -29.5l24 90q141 2 242.5 29.5t166 72.5t95.5 103.5t31 122.5q0 117 -96.5 185.5t-274.5 100.5l25 93q242 57 348 152t106 231q0 104 -73.5 171.5t-208.5 67.5q-152 0 -258.5 -111.5t-159.5 -310.5l-266 -993h-101z" />
<glyph unicode="&#xe0;" horiz-adv-x="1169" d="M47 268q0 86 35 157t97.5 120t149.5 75.5t189 26.5q113 0 218.5 -18.5t183.5 -40.5l8 28q6 23 10 52.5t4 52.5q0 119 -81 182.5t-234 63.5q-86 0 -157 -14.5t-146 -41.5l-19 90q78 29 155 44.5t175 15.5q193 0 299 -87t106 -239q0 -29 -5 -65.5t-15 -71.5l-160 -598h-98 l47 180q-76 -90 -179.5 -147.5t-240.5 -57.5q-66 0 -127 18.5t-109.5 55.5t-77 91.5t-28.5 127.5zM154 281q0 -98 68.5 -155.5t185.5 -57.5q74 0 147.5 24.5t138 70.5t112.5 109.5t68 143.5l25 92q-80 20 -179 34.5t-216 14.5q-78 0 -142.5 -20.5t-110.5 -57.5t-71.5 -87 t-25.5 -111zM582 1430l127 61l106 -272h-71z" />
<glyph unicode="&#xe1;" horiz-adv-x="1169" d="M47 268q0 86 35 157t97.5 120t149.5 75.5t189 26.5q113 0 218.5 -18.5t183.5 -40.5l8 28q6 23 10 52.5t4 52.5q0 119 -81 182.5t-234 63.5q-86 0 -157 -14.5t-146 -41.5l-19 90q78 29 155 44.5t175 15.5q193 0 299 -87t106 -239q0 -29 -5 -65.5t-15 -71.5l-160 -598h-98 l47 180q-76 -90 -179.5 -147.5t-240.5 -57.5q-66 0 -127 18.5t-109.5 55.5t-77 91.5t-28.5 127.5zM154 281q0 -98 68.5 -155.5t185.5 -57.5q74 0 147.5 24.5t138 70.5t112.5 109.5t68 143.5l25 92q-80 20 -179 34.5t-216 14.5q-78 0 -142.5 -20.5t-110.5 -57.5t-71.5 -87 t-25.5 -111zM616 1219l254 272l127 -61l-277 -211h-104z" />
<glyph unicode="&#xe2;" horiz-adv-x="1169" d="M47 268q0 86 35 157t97.5 120t149.5 75.5t189 26.5q113 0 218.5 -18.5t183.5 -40.5l8 28q6 23 10 52.5t4 52.5q0 119 -81 182.5t-234 63.5q-86 0 -157 -14.5t-146 -41.5l-19 90q78 29 155 44.5t175 15.5q193 0 299 -87t106 -239q0 -29 -5 -65.5t-15 -71.5l-160 -598h-98 l47 180q-76 -90 -179.5 -147.5t-240.5 -57.5q-66 0 -127 18.5t-109.5 55.5t-77 91.5t-28.5 127.5zM154 281q0 -98 68.5 -155.5t185.5 -57.5q74 0 147.5 24.5t138 70.5t112.5 109.5t68 143.5l25 92q-80 20 -179 34.5t-216 14.5q-78 0 -142.5 -20.5t-110.5 -57.5t-71.5 -87 t-25.5 -111zM504 1219l272 249h82l137 -249h-90l-106 139l-197 -139h-98z" />
<glyph unicode="&#xe3;" horiz-adv-x="1169" d="M47 268q0 86 35 157t97.5 120t149.5 75.5t189 26.5q113 0 218.5 -18.5t183.5 -40.5l8 28q6 23 10 52.5t4 52.5q0 119 -81 182.5t-234 63.5q-86 0 -157 -14.5t-146 -41.5l-19 90q78 29 155 44.5t175 15.5q193 0 299 -87t106 -239q0 -29 -5 -65.5t-15 -71.5l-160 -598h-98 l47 180q-76 -90 -179.5 -147.5t-240.5 -57.5q-66 0 -127 18.5t-109.5 55.5t-77 91.5t-28.5 127.5zM154 281q0 -98 68.5 -155.5t185.5 -57.5q74 0 147.5 24.5t138 70.5t112.5 109.5t68 143.5l25 92q-80 20 -179 34.5t-216 14.5q-78 0 -142.5 -20.5t-110.5 -57.5t-71.5 -87 t-25.5 -111zM450 1245q49 100 98.5 148.5t114.5 48.5q47 0 75 -19.5t63 -52.5t53 -47t45 -14q33 0 59.5 30.5t61.5 92.5l78 -31q-49 -100 -98.5 -148.5t-114.5 -48.5q-47 0 -75 19.5t-63 52.5t-53 47t-45 14q-33 0 -59.5 -30.5t-61.5 -92.5z" />
<glyph unicode="&#xe4;" horiz-adv-x="1169" d="M47 268q0 86 35 157t97.5 120t149.5 75.5t189 26.5q113 0 218.5 -18.5t183.5 -40.5l8 28q6 23 10 52.5t4 52.5q0 119 -81 182.5t-234 63.5q-86 0 -157 -14.5t-146 -41.5l-19 90q78 29 155 44.5t175 15.5q193 0 299 -87t106 -239q0 -29 -5 -65.5t-15 -71.5l-160 -598h-98 l47 180q-76 -90 -179.5 -147.5t-240.5 -57.5q-66 0 -127 18.5t-109.5 55.5t-77 91.5t-28.5 127.5zM154 281q0 -98 68.5 -155.5t185.5 -57.5q74 0 147.5 24.5t138 70.5t112.5 109.5t68 143.5l25 92q-80 20 -179 34.5t-216 14.5q-78 0 -142.5 -20.5t-110.5 -57.5t-71.5 -87 t-25.5 -111zM508 1219l45 163h142l-45 -163h-142zM842 1219l45 163h141l-45 -163h-141z" />
<glyph unicode="&#xe5;" horiz-adv-x="1169" d="M47 268q0 86 35 157t97.5 120t149.5 75.5t189 26.5q113 0 218.5 -18.5t183.5 -40.5l8 28q6 23 10 52.5t4 52.5q0 119 -81 182.5t-234 63.5q-86 0 -157 -14.5t-146 -41.5l-19 90q78 29 155 44.5t175 15.5q193 0 299 -87t106 -239q0 -29 -5 -65.5t-15 -71.5l-160 -598h-98 l47 180q-76 -90 -179.5 -147.5t-240.5 -57.5q-66 0 -127 18.5t-109.5 55.5t-77 91.5t-28.5 127.5zM154 281q0 -98 68.5 -155.5t185.5 -57.5q74 0 147.5 24.5t138 70.5t112.5 109.5t68 143.5l25 92q-80 20 -179 34.5t-216 14.5q-78 0 -142.5 -20.5t-110.5 -57.5t-71.5 -87 t-25.5 -111zM590 1386q0 43 17 82t47 67t70 44t83 16q88 0 142 -48t54 -120q0 -43 -17 -81.5t-47 -66.5t-70 -44t-83 -16q-88 0 -142 48t-54 119zM663 1386q0 -45 32 -73.5t91 -28.5t101.5 42t42.5 101q0 45 -32 74t-91 29t-101.5 -42t-42.5 -102z" />
<glyph unicode="&#xe6;" horiz-adv-x="1976" d="M47 279q0 86 36 153.5t100.5 115.5t152.5 73.5t190 25.5q109 0 213.5 -18.5t180.5 -40.5l8 28q6 23 10 52.5t4 52.5q0 119 -81 182.5t-234 63.5q-86 0 -157 -14.5t-146 -41.5l-19 90q78 29 155 44.5t175 15.5q166 0 268.5 -65.5t128.5 -182.5q82 111 201 183.5t260 72.5 q98 0 172 -31.5t124 -87t74.5 -128t24.5 -152.5q0 -100 -28 -183h-859q-2 -16 -3 -34.5t-1 -34.5q0 -80 26 -143.5t71 -109.5t109.5 -70.5t139.5 -24.5q119 0 200 38.5t157 100.5l59 -72q-82 -68 -181 -115t-228 -47q-160 0 -265.5 70.5t-152.5 185.5 q-106 -111 -240.5 -183.5t-281.5 -72.5q-76 0 -142.5 19.5t-116 57.5t-77 95.5t-27.5 131.5zM154 291q0 -102 68.5 -162.5t195.5 -60.5q133 0 255 67.5t232 188.5q-4 23 -6 48t-2 50q0 45 6 88q-72 20 -179.5 33.5t-211.5 13.5q-78 0 -143.5 -20.5t-113.5 -55.5t-74.5 -84 t-26.5 -106zM1020 578h758q4 14 6 35.5t2 50.5q0 63 -17.5 119.5t-54.5 99.5t-92 68.5t-131 25.5q-88 0 -164 -32t-137.5 -87t-104.5 -128t-65 -152z" />
<glyph unicode="&#xe7;" horiz-adv-x="1142" d="M102 426q0 129 49.5 244.5t134.5 205t196.5 141.5t234.5 52q80 0 145.5 -20.5t115.5 -56.5t87 -81t61 -94l-84 -47q-47 84 -123.5 144.5t-207.5 60.5q-100 0 -190.5 -44t-159 -120t-109.5 -173t-41 -206q0 -88 29.5 -155.5t79 -113.5t113 -69.5t130.5 -23.5q102 0 184 41 t154 108l68 -65q-80 -78 -181.5 -128.5t-230.5 -50.5h-6l-211 -278l-98 53l221 234q-72 14 -137.5 50t-114.5 92t-79 132t-30 168z" />
<glyph unicode="&#xe8;" horiz-adv-x="1193" d="M102 414q0 123 47.5 240.5t128 209.5t191.5 148.5t238 56.5q98 0 171.5 -31.5t124 -87t75 -128t24.5 -152.5q0 -100 -29 -183h-858q-2 -16 -3 -34.5t-1 -34.5q0 -80 25.5 -143.5t70.5 -109.5t109.5 -70.5t140.5 -24.5q119 0 200 38.5t156 100.5l60 -72 q-82 -68 -178.5 -115t-237.5 -47q-100 0 -183 32t-143.5 90.5t-94.5 139t-34 177.5zM233 578h758q4 14 6 35.5t2 50.5q0 63 -17 119.5t-54 99.5t-92.5 68.5t-130.5 25.5q-88 0 -164 -32t-137.5 -87t-104.5 -128t-66 -152zM590 1430l127 61l106 -272h-71z" />
<glyph unicode="&#xe9;" horiz-adv-x="1193" d="M102 414q0 123 47.5 240.5t128 209.5t191.5 148.5t238 56.5q98 0 171.5 -31.5t124 -87t75 -128t24.5 -152.5q0 -100 -29 -183h-858q-2 -16 -3 -34.5t-1 -34.5q0 -80 25.5 -143.5t70.5 -109.5t109.5 -70.5t140.5 -24.5q119 0 200 38.5t156 100.5l60 -72 q-82 -68 -178.5 -115t-237.5 -47q-100 0 -183 32t-143.5 90.5t-94.5 139t-34 177.5zM233 578h758q4 14 6 35.5t2 50.5q0 63 -17 119.5t-54 99.5t-92.5 68.5t-130.5 25.5q-88 0 -164 -32t-137.5 -87t-104.5 -128t-66 -152zM635 1219l254 272l127 -61l-277 -211h-104z" />
<glyph unicode="&#xea;" horiz-adv-x="1193" d="M102 414q0 123 47.5 240.5t128 209.5t191.5 148.5t238 56.5q98 0 171.5 -31.5t124 -87t75 -128t24.5 -152.5q0 -100 -29 -183h-858q-2 -16 -3 -34.5t-1 -34.5q0 -80 25.5 -143.5t70.5 -109.5t109.5 -70.5t140.5 -24.5q119 0 200 38.5t156 100.5l60 -72 q-82 -68 -178.5 -115t-237.5 -47q-100 0 -183 32t-143.5 90.5t-94.5 139t-34 177.5zM233 578h758q4 14 6 35.5t2 50.5q0 63 -17 119.5t-54 99.5t-92.5 68.5t-130.5 25.5q-88 0 -164 -32t-137.5 -87t-104.5 -128t-66 -152zM500 1219l272 249h82l137 -249h-90l-106 139 l-197 -139h-98z" />
<glyph unicode="&#xeb;" horiz-adv-x="1193" d="M102 414q0 123 47.5 240.5t128 209.5t191.5 148.5t238 56.5q98 0 171.5 -31.5t124 -87t75 -128t24.5 -152.5q0 -100 -29 -183h-858q-2 -16 -3 -34.5t-1 -34.5q0 -80 25.5 -143.5t70.5 -109.5t109.5 -70.5t140.5 -24.5q119 0 200 38.5t156 100.5l60 -72 q-82 -68 -178.5 -115t-237.5 -47q-100 0 -183 32t-143.5 90.5t-94.5 139t-34 177.5zM233 578h758q4 14 6 35.5t2 50.5q0 63 -17 119.5t-54 99.5t-92.5 68.5t-130.5 25.5q-88 0 -164 -32t-137.5 -87t-104.5 -128t-66 -152zM516 1219l45 163h142l-45 -163h-142zM850 1219 l45 163h141l-45 -163h-141z" />
<glyph unicode="&#xec;" horiz-adv-x="509" d="M66 0l280 1044h100l-280 -1044h-100zM207 1430l127 61l106 -272h-71z" />
<glyph unicode="&#xed;" horiz-adv-x="509" d="M66 0l280 1044h100l-280 -1044h-100zM371 1219l254 272l127 -61l-277 -211h-104z" />
<glyph unicode="&#xee;" horiz-adv-x="509" d="M66 0l280 1044h100l-280 -1044h-100zM179 1219l272 249h82l137 -249h-90l-106 139l-197 -139h-98z" />
<glyph unicode="&#xef;" horiz-adv-x="509" d="M66 0l280 1044h100l-280 -1044h-100zM196 1219l45 163h142l-45 -163h-142zM530 1219l45 163h141l-45 -163h-141z" />
<glyph unicode="&#xf0;" horiz-adv-x="1261" d="M96 414q0 121 48.5 226t128 184t183 124t214.5 45q113 0 188.5 -32.5t126.5 -75.5l-168 399l-315 -139l-45 82l323 143l-53 125h121l33 -82l227 100l45 -81l-238 -105l150 -377q51 -127 73.5 -214t22.5 -175q0 -111 -45 -215t-125 -186t-191.5 -132.5t-244.5 -50.5 q-98 0 -182 34t-145.5 92.5t-96.5 138.5t-35 172zM205 420q0 -80 26.5 -144.5t74.5 -109.5t114.5 -69.5t144.5 -24.5q98 0 187.5 39t156 104.5t105.5 153.5t39 188q0 70 -26 132.5t-75 110.5t-119.5 75.5t-160.5 27.5q-94 0 -179 -39t-149.5 -105.5t-101.5 -153.5t-37 -185z " />
<glyph unicode="&#xf1;" horiz-adv-x="1251" d="M51 0l279 1044h100l-51 -194q78 92 171 155.5t224 63.5q156 0 249 -90t93 -242q0 -35 -6 -72.5t-16 -74.5l-156 -590h-100l159 598q8 29 12.5 64.5t4.5 64.5q0 117 -72 184.5t-197 67.5q-68 0 -135 -28.5t-126.5 -81t-105.5 -123t-69 -156.5l-157 -590h-101zM491 1245 q49 100 98.5 148.5t114.5 48.5q47 0 75 -19.5t63 -52.5t53 -47t45 -14q33 0 59.5 30.5t61.5 92.5l78 -31q-49 -100 -98.5 -148.5t-114.5 -48.5q-47 0 -75 19.5t-63 52.5t-53 47t-45 14q-33 0 -59.5 -30.5t-61.5 -92.5z" />
<glyph unicode="&#xf2;" horiz-adv-x="1296" d="M104 438q0 123 50.5 238t135.5 202t197.5 139t237.5 52q104 0 189 -35t146.5 -96t95.5 -146t34 -186q0 -127 -51.5 -241.5t-137.5 -200.5t-198.5 -137.5t-233.5 -51.5q-104 0 -189 35t-146.5 96.5t-95.5 146.5t-34 185zM213 442q0 -178 101.5 -275t265.5 -97q96 0 186 43 t159.5 115.5t112.5 169t43 204.5q0 178 -101 275.5t-265 97.5q-98 0 -189.5 -44t-161 -118t-110.5 -170t-41 -201zM612 1430l127 61l106 -272h-71z" />
<glyph unicode="&#xf3;" horiz-adv-x="1296" d="M104 438q0 123 50.5 238t135.5 202t197.5 139t237.5 52q104 0 189 -35t146.5 -96t95.5 -146t34 -186q0 -127 -51.5 -241.5t-137.5 -200.5t-198.5 -137.5t-233.5 -51.5q-104 0 -189 35t-146.5 96.5t-95.5 146.5t-34 185zM213 442q0 -178 101.5 -275t265.5 -97q96 0 186 43 t159.5 115.5t112.5 169t43 204.5q0 178 -101 275.5t-265 97.5q-98 0 -189.5 -44t-161 -118t-110.5 -170t-41 -201zM659 1219l254 272l127 -61l-277 -211h-104z" />
<glyph unicode="&#xf4;" horiz-adv-x="1296" d="M104 438q0 123 50.5 238t135.5 202t197.5 139t237.5 52q104 0 189 -35t146.5 -96t95.5 -146t34 -186q0 -127 -51.5 -241.5t-137.5 -200.5t-198.5 -137.5t-233.5 -51.5q-104 0 -189 35t-146.5 96.5t-95.5 146.5t-34 185zM213 442q0 -178 101.5 -275t265.5 -97q96 0 186 43 t159.5 115.5t112.5 169t43 204.5q0 178 -101 275.5t-265 97.5q-98 0 -189.5 -44t-161 -118t-110.5 -170t-41 -201zM570 1219l272 249h82l137 -249h-90l-106 139l-197 -139h-98z" />
<glyph unicode="&#xf5;" horiz-adv-x="1296" d="M104 438q0 123 50.5 238t135.5 202t197.5 139t237.5 52q104 0 189 -35t146.5 -96t95.5 -146t34 -186q0 -127 -51.5 -241.5t-137.5 -200.5t-198.5 -137.5t-233.5 -51.5q-104 0 -189 35t-146.5 96.5t-95.5 146.5t-34 185zM213 442q0 -178 101.5 -275t265.5 -97q96 0 186 43 t159.5 115.5t112.5 169t43 204.5q0 178 -101 275.5t-265 97.5q-98 0 -189.5 -44t-161 -118t-110.5 -170t-41 -201zM499 1245q49 100 98.5 148.5t114.5 48.5q47 0 75 -19.5t63 -52.5t53 -47t45 -14q33 0 59.5 30.5t61.5 92.5l78 -31q-49 -100 -98.5 -148.5t-114.5 -48.5 q-47 0 -75 19.5t-63 52.5t-53 47t-45 14q-33 0 -59.5 -30.5t-61.5 -92.5z" />
<glyph unicode="&#xf6;" horiz-adv-x="1296" d="M104 438q0 123 50.5 238t135.5 202t197.5 139t237.5 52q104 0 189 -35t146.5 -96t95.5 -146t34 -186q0 -127 -51.5 -241.5t-137.5 -200.5t-198.5 -137.5t-233.5 -51.5q-104 0 -189 35t-146.5 96.5t-95.5 146.5t-34 185zM213 442q0 -178 101.5 -275t265.5 -97q96 0 186 43 t159.5 115.5t112.5 169t43 204.5q0 178 -101 275.5t-265 97.5q-98 0 -189.5 -44t-161 -118t-110.5 -170t-41 -201zM551 1219l45 163h142l-45 -163h-142zM885 1219l45 163h141l-45 -163h-141z" />
<glyph unicode="&#xf8;" horiz-adv-x="1296" d="M-72 -10l242 196q-66 109 -66 252q0 123 50.5 238t135.5 202t197.5 139t237.5 52q111 0 198 -38t148 -103l162 131h137l-246 -201q66 -109 66 -252q0 -127 -51.5 -241.5t-137.5 -200.5t-198.5 -137.5t-233.5 -51.5q-111 0 -197.5 39t-148.5 105l-157 -129h-138zM213 442 q0 -55 10 -101t29 -87l743 610q-100 111 -280 111q-98 0 -189.5 -44t-161 -118t-110.5 -170t-41 -201zM299 180q99 -110 281 -110q96 0 186 43t159.5 115.5t112.5 169t43 204.5q0 55 -10 101.5t-29 87.5z" />
<glyph unicode="&#xf9;" horiz-adv-x="1247" d="M131 307q0 35 6 73t17 75l155 589h101l-160 -598q-8 -29 -12.5 -64.5t-4.5 -64.5q0 -117 72 -184t197 -67q68 0 135.5 28.5t126.5 80.5t105 123t69 157l158 589h100l-278 -1044h-101l51 195q-76 -92 -169 -156t-226 -64q-156 0 -249 90.5t-93 241.5zM596 1430l127 61 l106 -272h-71z" />
<glyph unicode="&#xfa;" horiz-adv-x="1247" d="M131 307q0 35 6 73t17 75l155 589h101l-160 -598q-8 -29 -12.5 -64.5t-4.5 -64.5q0 -117 72 -184t197 -67q68 0 135.5 28.5t126.5 80.5t105 123t69 157l158 589h100l-278 -1044h-101l51 195q-76 -92 -169 -156t-226 -64q-156 0 -249 90.5t-93 241.5zM676 1219l254 272 l127 -61l-277 -211h-104z" />
<glyph unicode="&#xfb;" horiz-adv-x="1247" d="M131 307q0 35 6 73t17 75l155 589h101l-160 -598q-8 -29 -12.5 -64.5t-4.5 -64.5q0 -117 72 -184t197 -67q68 0 135.5 28.5t126.5 80.5t105 123t69 157l158 589h100l-278 -1044h-101l51 195q-76 -92 -169 -156t-226 -64q-156 0 -249 90.5t-93 241.5zM539 1219l272 249h82 l137 -249h-90l-106 139l-197 -139h-98z" />
<glyph unicode="&#xfc;" horiz-adv-x="1247" d="M131 307q0 35 6 73t17 75l155 589h101l-160 -598q-8 -29 -12.5 -64.5t-4.5 -64.5q0 -117 72 -184t197 -67q68 0 135.5 28.5t126.5 80.5t105 123t69 157l158 589h100l-278 -1044h-101l51 195q-76 -92 -169 -156t-226 -64q-156 0 -249 90.5t-93 241.5zM549 1219l45 163h142 l-45 -163h-142zM883 1219l45 163h141l-45 -163h-141z" />
<glyph unicode="&#xfd;" horiz-adv-x="1163" d="M-180 -262l55 82q33 -27 85 -43.5t93 -16.5q80 0 159 53.5t175 192.5l-213 1038h107l182 -933l629 933h120l-743 -1081q-113 -164 -214 -230.5t-214 -66.5q-119 0 -221 72zM604 1219l254 272l127 -61l-277 -211h-104z" />
<glyph unicode="&#xfe;" horiz-adv-x="1339" d="M-37 -328l490 1823h100l-178 -655q78 94 185.5 161.5t248.5 67.5q90 0 167 -32.5t133 -91t88 -139.5t32 -177q0 -139 -48 -259t-130 -208t-188.5 -138.5t-223.5 -50.5q-88 0 -156.5 25t-119 65.5t-85 94t-55.5 108.5l-160 -594h-100zM274 432q0 -76 26 -142.5t74 -115.5 t114.5 -77.5t146.5 -28.5q106 0 195.5 45t154 120.5t100 175t35.5 207.5q0 80 -23.5 146.5t-66.5 114t-102.5 73t-130.5 25.5q-98 0 -191.5 -46t-167 -121t-119 -173t-45.5 -203z" />
<glyph unicode="&#xff;" horiz-adv-x="1163" d="M-180 -262l55 82q33 -27 85 -43.5t93 -16.5q80 0 159 53.5t175 192.5l-213 1038h107l182 -933l629 933h120l-743 -1081q-113 -164 -214 -230.5t-214 -66.5q-119 0 -221 72zM495 1219l45 163h142l-45 -163h-142zM829 1219l45 163h141l-45 -163h-141z" />
<glyph unicode="&#x152;" horiz-adv-x="2363" d="M188 602q0 166 57.5 306.5t166.5 248.5q129 129 317.5 203t411.5 74h1329l-27 -99h-880l-152 -563h789l-27 -98h-789l-153 -576h891l-27 -98h-1192q-168 0 -313.5 47t-243.5 146q-76 76 -117 176t-41 233zM299 610q0 -111 35 -198.5t98 -151.5q80 -80 202 -121t275 -41 h215l332 1237h-330q-195 0 -355.5 -63.5t-278.5 -181.5q-92 -92 -142.5 -214t-50.5 -266z" />
<glyph unicode="&#x153;" horiz-adv-x="2142" d="M104 438q0 123 50.5 238t135.5 202t197.5 139t237.5 52q90 0 163 -26.5t127 -71.5t90 -106.5t50 -129.5q35 66 83 126.5t110.5 106.5t140.5 73.5t170 27.5q98 0 172 -31.5t124 -87t74.5 -128t24.5 -152.5q0 -100 -29 -183h-858q-2 -16 -3 -34.5t-1 -34.5 q0 -80 25.5 -143.5t71 -109.5t110 -70.5t139.5 -24.5q119 0 200 38.5t157 100.5l59 -72q-82 -68 -181 -115t-228 -47q-168 0 -284 87.5t-149 230.5q-39 -63 -91 -120.5t-116.5 -101.5t-143.5 -70t-169 -26q-100 0 -184 35t-145.5 96.5t-95.5 146.5t-34 185zM213 442 q0 -178 101.5 -275t265.5 -97q96 0 186 42t159.5 114.5t112.5 166.5t43 199q0 186 -101 284.5t-265 98.5q-98 0 -189.5 -44t-161 -118t-110.5 -170t-41 -201zM1186 578h758q4 14 6 35.5t2 50.5q0 63 -17.5 119.5t-54.5 99.5t-92 68.5t-131 25.5q-88 0 -164 -32t-137.5 -87 t-104.5 -128t-65 -152z" />
<glyph unicode="&#x178;" horiz-adv-x="1368" d="M260 1434h117l330 -770l745 770h143l-862 -879l-147 -555h-107l156 582zM702 1567l45 163h142l-45 -163h-142zM1036 1567l45 163h141l-45 -163h-141z" />
<glyph unicode="&#x2c6;" d="M455 1219l272 249h82l137 -249h-90l-106 139l-197 -139h-98z" />
<glyph unicode="&#x2dc;" d="M399 1245q49 100 98.5 148.5t114.5 48.5q47 0 75 -19.5t63 -52.5t53 -47t45 -14q33 0 59.5 30.5t61.5 92.5l78 -31q-49 -100 -98.5 -148.5t-114.5 -48.5q-47 0 -75 19.5t-63 52.5t-53 47t-45 14q-33 0 -59.5 -30.5t-61.5 -92.5z" />
<glyph unicode="&#x2000;" horiz-adv-x="919" />
<glyph unicode="&#x2001;" horiz-adv-x="1839" />
<glyph unicode="&#x2002;" horiz-adv-x="919" />
<glyph unicode="&#x2003;" horiz-adv-x="1839" />
<glyph unicode="&#x2004;" horiz-adv-x="613" />
<glyph unicode="&#x2005;" horiz-adv-x="459" />
<glyph unicode="&#x2006;" horiz-adv-x="306" />
<glyph unicode="&#x2007;" horiz-adv-x="306" />
<glyph unicode="&#x2008;" horiz-adv-x="229" />
<glyph unicode="&#x2009;" horiz-adv-x="367" />
<glyph unicode="&#x200a;" horiz-adv-x="102" />
<glyph unicode="&#x2010;" horiz-adv-x="837" d="M152 551l30 115h549l-31 -115h-548z" />
<glyph unicode="&#x2011;" horiz-adv-x="837" d="M152 551l30 115h549l-31 -115h-548z" />
<glyph unicode="&#x2012;" horiz-adv-x="837" d="M152 551l30 115h549l-31 -115h-548z" />
<glyph unicode="&#x2013;" horiz-adv-x="1081" d="M152 555l28 107h795l-29 -107h-794z" />
<glyph unicode="&#x2014;" horiz-adv-x="1839" d="M152 555l28 107h1553l-29 -107h-1552z" />
<glyph unicode="&#x2018;" horiz-adv-x="473" d="M301 1051l41 151q29 109 82 160t154 80l14 -49q-76 -27 -115 -68t-49 -100h55l-47 -174h-135z" />
<glyph unicode="&#x2019;" horiz-adv-x="473" d="M268 1092q76 27 115 67.5t49 100.5h-55l47 174h135l-41 -152q-31 -106 -82 -158.5t-153 -81.5z" />
<glyph unicode="&#x201a;" horiz-adv-x="473" d="M-80 -168q76 27 115 68t49 100h-55l47 174h135l-41 -151q-31 -109 -82 -160t-154 -80z" />
<glyph unicode="&#x201c;" horiz-adv-x="841" d="M299 1051l41 151q29 109 82 160t153 80l15 -49q-76 -27 -115 -68t-49 -100h55l-47 -174h-135zM668 1051l41 151q29 109 82 160t153 80l14 -49q-76 -27 -114.5 -68t-48.5 -100h55l-47 -174h-135z" />
<glyph unicode="&#x201d;" horiz-adv-x="841" d="M246 1092q76 27 114.5 67.5t49.5 100.5h-56l47 174h136l-41 -152q-31 -106 -82.5 -158.5t-153.5 -81.5zM614 1092q76 27 115 67.5t49 100.5h-55l47 174h135l-41 -152q-31 -106 -82 -158.5t-153 -81.5z" />
<glyph unicode="&#x201e;" horiz-adv-x="843" d="M-80 -168q76 27 115 68t49 100h-55l47 174h135l-41 -151q-31 -109 -82 -160t-154 -80zM291 -168q76 27 114.5 68t49.5 100h-56l47 174h136l-41 -151q-31 -109 -82 -160t-154 -80z" />
<glyph unicode="&#x2022;" horiz-adv-x="962" d="M260 678q0 61 23.5 117.5t63.5 99.5t93.5 67.5t112.5 24.5q94 0 154.5 -59.5t60.5 -163.5q0 -61 -23.5 -117.5t-63.5 -99.5t-93.5 -67.5t-112.5 -24.5q-94 0 -154.5 59t-60.5 164z" />
<glyph unicode="&#x2026;" horiz-adv-x="1398" d="M29 0l47 174h135l-47 -174h-135zM492 0l47 174h135l-47 -174h-135zM954 0l47 174h136l-47 -174h-136z" />
<glyph unicode="&#x202f;" horiz-adv-x="367" />
<glyph unicode="&#x2039;" horiz-adv-x="636" d="M92 514l4 16l443 428l73 -57l-393 -393l170 -377l-84 -45z" />
<glyph unicode="&#x203a;" horiz-adv-x="636" d="M23 141l393 394l-170 376l84 45l213 -428l-4 -16l-443 -428z" />
<glyph unicode="&#x205f;" horiz-adv-x="459" />
<glyph unicode="&#x2122;" horiz-adv-x="1413" d="M268 1364l21 70h485l-20 -70h-207l-160 -561h-72l160 561h-207zM737 803l181 631h65l147 -375l345 375h84l-181 -631h-71l145 504l-342 -365h-10l-146 365l-145 -504h-72z" />
<glyph unicode="&#x25fc;" horiz-adv-x="1044" d="M0 0v1044h1044v-1044h-1044z" />
<glyph unicode="&#xfb01;" horiz-adv-x="1253" d="M113 0l256 952h-152l25 92h151l41 152q80 299 334 299q59 0 112.5 -13.5t96.5 -35.5l-25 -90q-53 25 -95 37t-93 12q-82 0 -143.5 -54.5t-92.5 -176.5l-34 -130h376l-24 -92h-377l-256 -952h-100zM807 0l280 1044h101l-281 -1044h-100zM1149 1317l37 137h125l-37 -137 h-125z" />
<glyph unicode="&#xfb02;" horiz-adv-x="1253" d="M113 0l256 952h-152l25 92h151l41 152q80 299 334 299q59 0 112.5 -13.5t96.5 -35.5l-25 -90q-53 25 -95 37t-93 12q-82 0 -143.5 -54.5t-92.5 -176.5l-34 -130h376l-24 -92h-377l-256 -952h-100zM807 0l401 1495h101l-402 -1495h-100z" />
</font>
</defs>
</svg>
